<?xml version="1.0" encoding="utf-8"?>
<!-- Generator: Adobe Illustrator 19.0.0, SVG Export Plug-In . SVG Version: 6.00 Build 0)  -->
<svg version="1.1" id="Layer_1" xmlns="http://www.w3.org/2000/svg" xmlns:xlink="http://www.w3.org/1999/xlink" x="0px" y="0px"
	 viewBox="-237 239 24 24" style="enable-background:new -237 239 24 24;" xml:space="preserve">
<style type="text/css">
	.st0{fill:#FFFFFF;}
</style>
<path class="st0" d="M-219,251.3h-3C-221.7,249.4-219.1,249.6-219,251.3z M-228.7,252h-2.3v2h2.2C-226.7,254-226.9,252-228.7,252z
	 M-228.8,248h-2.2v2h2.4C-226.9,250-226.7,248-228.8,248z M-213,239v24h-24v-24H-213z M-223,247h5v-1h-5V247z M-226.6,250.6
	c1.9-1,1.8-4.6-1.8-4.6h-4.6v10h4.3C-224.2,256-224.2,251.5-226.6,250.6z M-217.1,251.2c-0.3-1.8-1.5-2.9-3.6-2.9
	c-2.1,0-3.4,1.3-3.4,3.9c0,2.6,1.4,3.8,3.4,3.8c2,0,3.1-1.1,3.4-2h-2.1c-0.7,0.9-2.9,0.5-2.8-1.4h5.1
	C-217,252-217,251.6-217.1,251.2z"/>
</svg>
